<?xml version="1.0" encoding="UTF-8"?>
<svg width="752pt" height="752pt" version="1.1" viewBox="0 0 752 752" xmlns="http://www.w3.org/2000/svg">
 <path d="m511.92 240.08c-17.648-17.648-38.207-31.508-61.094-41.188-23.707-10.027-48.883-15.109-74.828-15.109s-51.117 5.082-74.824 15.109c-22.887 9.6797-43.445 23.539-61.094 41.188-17.648 17.648-31.508 38.207-41.188 61.094-10.027 23.707-15.109 48.879-15.109 74.824s5.082 51.117 15.109 74.824c9.6797 22.887 23.539 43.445 41.188 61.094 17.648 17.648 38.207 31.508 61.094 41.188 23.707 10.027 48.879 15.109 74.824 15.109s51.117-5.082 74.824-15.109c22.887-9.6797 43.445-23.539 61.094-41.188 17.648-17.648 31.508-38.207 41.188-61.094 10.027-23.707 15.109-48.879 15.109-74.824s-5.082-51.117-15.109-74.824c-9.6758-22.887-23.535-43.445-41.184-61.094zm-64.234 189c0 10.258-8.3477 18.605-18.605 18.605h-106.16c-10.258 0-18.605-8.3477-18.605-18.605v-106.16c0-10.258 8.3477-18.605 18.605-18.605h106.16c10.258 0 18.605 8.3477 18.605 18.605z"/>
</svg>
